<svg id="svg_plot" xmlns="http://www.w3.org/2000/svg"
     viewBox="0 0 300 300"
    onclick="plotClicked(evt)">
    <defs>
        <style>

            .cls-2 {
            fill: none;
            }

            .cls-2, .cls-3 {
            stroke: #000;
            stroke-miterlimit: 10;
            stroke-width: 0.5px;
            }

            .cls-4 {
            font-size: 12px;
            }

            .cls-4, .cls-5 {
            font-family: MyriadPro-Regular, Myriad Pro, serif;
            }

            .cls-5 {
            font-size: 14px;
            }</style>
    </defs>
    <title>Plot</title>

    <rect class="cls-1" x="30" y="150" width="120" height="120"/>
    <path class="cls-1" d="M150,30V150H30A119.992,119.992,0,0,1,150,30Z"/>
    <polygon class="cls-1" points="150 210 150 150 210 150 150 210"/>

    <line class="cls-2" x1="150" y1="300" x2="150" y2="5.295"/>
    <polygon points="150 0 153.049 7.462 150 5.691 146.952 7.462 150 0"/>
    <line class="cls-2" y1="150.052" x2="294.705" y2="149.95"/>
    <polygon points="300 149.948 292.539 153 294.309 149.95 292.537 146.902 300 149.948"/>
    <path class="cls-3" d="M90.02,150l-.02.02V150Z" transform="translate(0 0)"/>
    <line class="cls-2" x1="210" y1="154" x2="210" y2="146"/>
    <line class="cls-2" x1="154" y1="210" x2="146" y2="210"/>
    <line class="cls-2" x1="154" y1="90" x2="146" y2="90"/>
    <line class="cls-2" x1="90" y1="154" x2="90" y2="146"/>
    <line class="cls-2" x1="154" y1="270" x2="146" y2="270"/>
    <line class="cls-2" x1="270" y1="154" x2="270" y2="146"/>
    <line class="cls-2" x1="154" y1="30" x2="146" y2="30"/>
    <line class="cls-2" x1="30" y1="154" x2="30" y2="146"/>

    <line id="frame-top" class="frame" x1="-90" y1="-210" x2="390" y2="-210"/>
    <line id="frame-bot" class="frame" x1="-90" y1="750" x2="390" y2="750"/>
    <line id="frame-left" class="frame" x1="-90" y1="-210" x2="-90" y2="750"/>
    <line id="frame-right" class="frame" x1="390" y1="-210" x2="390" y2="750"/>
    <!--<rect id="frame" x="30" y="30" width="240" height="240"/>-->



    <text class="cls-4" transform="translate(30 143)">-
        <tspan>1</tspan>
    </text>
    <text class="cls-4" transform="translate(154 267)">-
        <tspan>1</tspan>
    </text>
    <text class="cls-4" transform="translate(263 143)">
        <tspan>1</tspan>
    </text>
    <text class="cls-4" transform="translate(154 25)">
        <tspan>1</tspan>
    </text>
    <text class="cls-4 divis" transform="translate(154 207)">-
        <tspan>0.5</tspan>
    </text>
    <text class="cls-4 divis" transform="translate(154 85)">
        <tspan>0.5</tspan>
    </text>
    <text class="cls-4 divis" transform="translate(210 143)">
        <tspan>0.5</tspan>
    </text>
    <text class="cls-4 divis" transform="translate(69 143)">-
        <tspan>0.5</tspan>
    </text>
    <text class="cls-5" transform="translate(158 13)">Y</text>
    <text class="cls-5" transform="translate(289 143)">X</text>
</svg>